<svg width="18" height="17" viewBox="0 0 18 17" fill="none" xmlns="http://www.w3.org/2000/svg">
<path d="M9.74368 9C10.9863 9 11.9937 10.0074 11.9937 11.25L11.9925 12.3726C12.1468 15.1273 10.025 16.5012 6.09029 16.5012C2.16828 16.5012 0 15.1453 0 12.4119V11.25C0 10.0074 1.00735 9 2.25 9H9.74368ZM15.7446 9C16.9872 9 17.9946 10.0074 17.9946 11.25L17.9934 12.0399C18.1292 14.511 16.2543 15.75 12.8274 15.75C12.3623 15.75 11.9249 15.7274 11.5165 15.6821C11.9525 15.281 12.2772 14.8022 12.4842 14.2461L12.8274 14.25C15.5037 14.25 16.5737 13.5429 16.4946 12.081V11.25C16.4946 10.8358 16.1588 10.5 15.7446 10.5L12.6492 10.5C12.4973 9.91 12.1705 9.39027 11.7273 8.99938L15.7446 9ZM9.74368 10.5H2.25C1.83579 10.5 1.5 10.8358 1.5 11.25V12.4119C1.5 14.1309 2.89191 15.0012 6.09029 15.0012C9.27596 15.0012 10.5897 14.1506 10.4937 12.4145V11.25C10.4937 10.8358 10.1579 10.5 9.74368 10.5ZM6 0C8.07141 0 9.75062 1.67921 9.75062 3.7506C9.75062 5.82201 8.07141 7.50121 6 7.50121C3.92859 7.50121 2.24938 5.82201 2.24938 3.7506C2.24938 1.67921 3.92859 0 6 0ZM13.5 1.5C15.1569 1.5 16.5 2.84314 16.5 4.5C16.5 6.15686 15.1569 7.5 13.5 7.5C11.8431 7.5 10.5 6.15686 10.5 4.5C10.5 2.84314 11.8431 1.5 13.5 1.5ZM6 1.5C4.75702 1.5 3.7494 2.50763 3.7494 3.7506C3.7494 4.99359 4.75702 6.00121 6 6.00121C7.24298 6.00121 8.2506 4.99359 8.2506 3.7506C8.2506 2.50763 7.24298 1.5 6 1.5ZM13.5 3C12.6715 3 12 3.67158 12 4.5C12 5.32842 12.6715 6 13.5 6C14.3285 6 15 5.32842 15 4.5C15 3.67158 14.3285 3 13.5 3Z" fill="#1B458D"/>
</svg>
